<mxfile host="65bd71144e">
    <diagram id="00nuwY2p7YIzP8TP2lVK" name="初步類別圖">
        <mxGraphModel dx="1100" dy="874" grid="1" gridSize="10" guides="1" tooltips="1" connect="1" arrows="1" fold="1" page="1" pageScale="1" pageWidth="827" pageHeight="1169" math="0" shadow="0">
            <root>
                <mxCell id="0"/>
                <mxCell id="1" parent="0"/>
                <mxCell id="110" style="edgeStyle=none;html=1;entryX=0.5;entryY=0;entryDx=0;entryDy=0;rounded=0;startArrow=none;startFill=0;endArrow=none;endFill=0;" parent="1" source="2" target="24" edge="1">
                    <mxGeometry relative="1" as="geometry">
                        <Array as="points">
                            <mxPoint x="135" y="270"/>
                            <mxPoint x="680" y="270"/>
                        </Array>
                    </mxGeometry>
                </mxCell>
                <mxCell id="113" style="edgeStyle=none;rounded=0;html=1;entryX=-0.005;entryY=0.266;entryDx=0;entryDy=0;entryPerimeter=0;startArrow=none;startFill=0;endArrow=none;endFill=0;" parent="1" source="2" target="45" edge="1">
                    <mxGeometry relative="1" as="geometry">
                        <Array as="points">
                            <mxPoint x="135" y="670"/>
                        </Array>
                    </mxGeometry>
                </mxCell>
                <mxCell id="114" style="edgeStyle=none;rounded=0;html=1;exitX=0.148;exitY=1.038;exitDx=0;exitDy=0;exitPerimeter=0;startArrow=none;startFill=0;endArrow=none;endFill=0;entryX=0.518;entryY=1.01;entryDx=0;entryDy=0;entryPerimeter=0;" parent="1" source="12" target="55" edge="1">
                    <mxGeometry relative="1" as="geometry">
                        <mxPoint x="691.99" y="760.5" as="targetPoint"/>
                        <Array as="points">
                            <mxPoint x="80" y="1020"/>
                            <mxPoint x="682" y="1020"/>
                        </Array>
                    </mxGeometry>
                </mxCell>
                <mxCell id="2" value="借書系統 " style="swimlane;fontStyle=1;align=center;verticalAlign=top;childLayout=stackLayout;horizontal=1;startSize=26;horizontalStack=0;resizeParent=1;resizeParentMax=0;resizeLast=0;collapsible=1;marginBottom=0;" parent="1" vertex="1">
                    <mxGeometry x="60" y="328" width="150" height="242" as="geometry"/>
                </mxCell>
                <mxCell id="3" value="- 讀者資料" style="text;strokeColor=none;fillColor=none;align=left;verticalAlign=top;spacingLeft=4;spacingRight=4;overflow=hidden;rotatable=0;points=[[0,0.5],[1,0.5]];portConstraint=eastwest;" parent="2" vertex="1">
                    <mxGeometry y="26" width="150" height="26" as="geometry"/>
                </mxCell>
                <mxCell id="6" value="- 圖書列表" style="text;strokeColor=none;fillColor=none;align=left;verticalAlign=top;spacingLeft=4;spacingRight=4;overflow=hidden;rotatable=0;points=[[0,0.5],[1,0.5]];portConstraint=eastwest;" parent="2" vertex="1">
                    <mxGeometry y="52" width="150" height="26" as="geometry"/>
                </mxCell>
                <mxCell id="7" value="- 借書清單" style="text;strokeColor=none;fillColor=none;align=left;verticalAlign=top;spacingLeft=4;spacingRight=4;overflow=hidden;rotatable=0;points=[[0,0.5],[1,0.5]];portConstraint=eastwest;" parent="2" vertex="1">
                    <mxGeometry y="78" width="150" height="26" as="geometry"/>
                </mxCell>
                <mxCell id="8" value="- 管理員資料" style="text;strokeColor=none;fillColor=none;align=left;verticalAlign=top;spacingLeft=4;spacingRight=4;overflow=hidden;rotatable=0;points=[[0,0.5],[1,0.5]];portConstraint=eastwest;" parent="2" vertex="1">
                    <mxGeometry y="104" width="150" height="26" as="geometry"/>
                </mxCell>
                <mxCell id="4" value="" style="line;strokeWidth=1;fillColor=none;align=left;verticalAlign=middle;spacingTop=-1;spacingLeft=3;spacingRight=3;rotatable=0;labelPosition=right;points=[];portConstraint=eastwest;strokeColor=inherit;" parent="2" vertex="1">
                    <mxGeometry y="130" width="150" height="8" as="geometry"/>
                </mxCell>
                <mxCell id="5" value="+ 登錄" style="text;strokeColor=none;fillColor=none;align=left;verticalAlign=top;spacingLeft=4;spacingRight=4;overflow=hidden;rotatable=0;points=[[0,0.5],[1,0.5]];portConstraint=eastwest;" parent="2" vertex="1">
                    <mxGeometry y="138" width="150" height="26" as="geometry"/>
                </mxCell>
                <mxCell id="11" value="+ 查詢圖書" style="text;strokeColor=none;fillColor=none;align=left;verticalAlign=top;spacingLeft=4;spacingRight=4;overflow=hidden;rotatable=0;points=[[0,0.5],[1,0.5]];portConstraint=eastwest;" parent="2" vertex="1">
                    <mxGeometry y="164" width="150" height="26" as="geometry"/>
                </mxCell>
                <mxCell id="10" value="+ 借書" style="text;strokeColor=none;fillColor=none;align=left;verticalAlign=top;spacingLeft=4;spacingRight=4;overflow=hidden;rotatable=0;points=[[0,0.5],[1,0.5]];portConstraint=eastwest;" parent="2" vertex="1">
                    <mxGeometry y="190" width="150" height="26" as="geometry"/>
                </mxCell>
                <mxCell id="12" value=" + 查看借書歷史" style="text;strokeColor=none;fillColor=none;align=left;verticalAlign=top;spacingLeft=4;spacingRight=4;overflow=hidden;rotatable=0;points=[[0,0.5],[1,0.5]];portConstraint=eastwest;" parent="2" vertex="1">
                    <mxGeometry y="216" width="150" height="26" as="geometry"/>
                </mxCell>
                <mxCell id="82" style="edgeStyle=none;rounded=0;html=1;entryX=-0.007;entryY=0.203;entryDx=0;entryDy=0;entryPerimeter=0;endArrow=none;endFill=0;exitX=-0.025;exitY=0.91;exitDx=0;exitDy=0;exitPerimeter=0;" parent="1" source="93" target="54" edge="1">
                    <mxGeometry relative="1" as="geometry">
                        <Array as="points">
                            <mxPoint x="510" y="427"/>
                            <mxPoint x="510" y="632"/>
                        </Array>
                    </mxGeometry>
                </mxCell>
                <mxCell id="20" value="讀者" style="swimlane;fontStyle=0;childLayout=stackLayout;horizontal=1;startSize=26;fillColor=none;horizontalStack=0;resizeParent=1;resizeParentMax=0;resizeLast=0;collapsible=1;marginBottom=0;" parent="1" vertex="1">
                    <mxGeometry x="290" y="330" width="140" height="150" as="geometry"/>
                </mxCell>
                <mxCell id="48" value="+ 姓名&#10;+ 手機號碼&#10;+ 聯繫方式&#10;+ 電子郵件&#10;-  密碼&#10;" style="text;strokeColor=none;fillColor=none;align=left;verticalAlign=top;spacingLeft=4;spacingRight=4;overflow=hidden;rotatable=0;points=[[0,0.5],[1,0.5]];portConstraint=eastwest;" parent="20" vertex="1">
                    <mxGeometry y="26" width="140" height="84" as="geometry"/>
                </mxCell>
                <mxCell id="51" value="+登入&#10;+註冊&#10;" style="text;strokeColor=default;fillColor=none;align=left;verticalAlign=top;spacingLeft=4;spacingRight=4;overflow=hidden;rotatable=0;points=[[0,0.5],[1,0.5]];portConstraint=eastwest;" parent="20" vertex="1">
                    <mxGeometry y="110" width="140" height="40" as="geometry"/>
                </mxCell>
                <mxCell id="83" style="edgeStyle=none;rounded=0;html=1;entryX=0.5;entryY=0;entryDx=0;entryDy=0;endArrow=none;endFill=0;" parent="1" source="24" target="35" edge="1">
                    <mxGeometry relative="1" as="geometry"/>
                </mxCell>
                <mxCell id="24" value="圖書" style="swimlane;fontStyle=0;childLayout=stackLayout;horizontal=1;startSize=26;fillColor=none;horizontalStack=0;resizeParent=1;resizeParentMax=0;resizeLast=0;collapsible=1;marginBottom=0;" parent="1" vertex="1">
                    <mxGeometry x="610" y="330" width="140" height="150" as="geometry"/>
                </mxCell>
                <mxCell id="52" value="+ 書名&#10;+ 作者&#10;+ 出版日期&#10;+ 館藏狀態&#10;+ 分類&#10;&#10;" style="text;strokeColor=none;fillColor=none;align=left;verticalAlign=top;spacingLeft=4;spacingRight=4;overflow=hidden;rotatable=0;points=[[0,0.5],[1,0.5]];portConstraint=eastwest;" parent="24" vertex="1">
                    <mxGeometry y="26" width="140" height="84" as="geometry"/>
                </mxCell>
                <mxCell id="53" value="+ 更新圖書訊息&#10;+ 查詢圖書&#10;&#10;" style="text;strokeColor=default;fillColor=none;align=left;verticalAlign=top;spacingLeft=4;spacingRight=4;overflow=hidden;rotatable=0;points=[[0,0.5],[1,0.5]];portConstraint=eastwest;" parent="24" vertex="1">
                    <mxGeometry y="110" width="140" height="40" as="geometry"/>
                </mxCell>
                <mxCell id="35" value="借書記錄" style="swimlane;fontStyle=0;childLayout=stackLayout;horizontal=1;startSize=26;fillColor=none;horizontalStack=0;resizeParent=1;resizeParentMax=0;resizeLast=0;collapsible=1;marginBottom=0;" parent="1" vertex="1">
                    <mxGeometry x="610" y="590" width="140" height="150" as="geometry"/>
                </mxCell>
                <mxCell id="54" value="+借書日期&#10;+還書日期&#10;+讀者:讀者資料&#10;+圖書:圖書&#10;&#10;&#10;&#10;&#10;" style="text;strokeColor=default;fillColor=none;align=left;verticalAlign=top;spacingLeft=4;spacingRight=4;overflow=hidden;rotatable=0;points=[[0,0.5],[1,0.5]];portConstraint=eastwest;" parent="35" vertex="1">
                    <mxGeometry y="26" width="140" height="74" as="geometry"/>
                </mxCell>
                <mxCell id="55" value="+創建借書紀錄&#10;+更新還書日期" style="text;strokeColor=default;fillColor=none;align=left;verticalAlign=top;spacingLeft=4;spacingRight=4;overflow=hidden;rotatable=0;points=[[0,0.5],[1,0.5]];portConstraint=eastwest;" parent="35" vertex="1">
                    <mxGeometry y="100" width="140" height="50" as="geometry"/>
                </mxCell>
                <mxCell id="84" style="edgeStyle=none;rounded=0;html=1;endArrow=none;endFill=0;exitX=1.002;exitY=0.389;exitDx=0;exitDy=0;exitPerimeter=0;" parent="1" source="45" edge="1">
                    <mxGeometry relative="1" as="geometry">
                        <mxPoint x="610" y="684" as="targetPoint"/>
                    </mxGeometry>
                </mxCell>
                <mxCell id="85" style="edgeStyle=none;rounded=0;html=1;entryX=0.5;entryY=0;entryDx=0;entryDy=0;endArrow=none;endFill=0;" parent="1" source="42" target="56" edge="1">
                    <mxGeometry relative="1" as="geometry"/>
                </mxCell>
                <mxCell id="86" style="edgeStyle=none;rounded=0;html=1;entryX=0.5;entryY=0;entryDx=0;entryDy=0;endArrow=none;endFill=0;exitX=0.786;exitY=1.013;exitDx=0;exitDy=0;exitPerimeter=0;" parent="1" source="45" target="59" edge="1">
                    <mxGeometry relative="1" as="geometry">
                        <Array as="points">
                            <mxPoint x="400" y="790"/>
                            <mxPoint x="550" y="790"/>
                        </Array>
                    </mxGeometry>
                </mxCell>
                <mxCell id="42" value="管理員" style="swimlane;fontStyle=0;childLayout=stackLayout;horizontal=1;startSize=26;fillColor=none;horizontalStack=0;resizeParent=1;resizeParentMax=0;resizeLast=0;collapsible=1;marginBottom=0;" parent="1" vertex="1">
                    <mxGeometry x="290" y="570" width="140" height="184" as="geometry"/>
                </mxCell>
                <mxCell id="43" value="+姓名 &#10;+聯繫方式" style="text;strokeColor=default;fillColor=none;align=left;verticalAlign=top;spacingLeft=4;spacingRight=4;overflow=hidden;rotatable=0;points=[[0,0.5],[1,0.5]];portConstraint=eastwest;" parent="42" vertex="1">
                    <mxGeometry y="26" width="140" height="44" as="geometry"/>
                </mxCell>
                <mxCell id="45" value="+審核註冊&#10;  +更新圖書信息&#10;  +審核借書申請&#10;  +查看庫存狀態&#10;  +管理借書還書記錄&#10;  +設定還書提醒&#10;  +設定逾期通知" style="text;strokeColor=default;fillColor=none;align=left;verticalAlign=top;spacingLeft=4;spacingRight=4;overflow=hidden;rotatable=0;points=[[0,0.5],[1,0.5]];portConstraint=eastwest;" parent="42" vertex="1">
                    <mxGeometry y="70" width="140" height="114" as="geometry"/>
                </mxCell>
                <mxCell id="56" value="還書提醒" style="swimlane;fontStyle=0;childLayout=stackLayout;horizontal=1;startSize=26;fillColor=none;horizontalStack=0;resizeParent=1;resizeParentMax=0;resizeLast=0;collapsible=1;marginBottom=0;" parent="1" vertex="1">
                    <mxGeometry x="290" y="870" width="140" height="80" as="geometry"/>
                </mxCell>
                <mxCell id="57" value="+提醒日期&#10;&#10;&#10;&#10;" style="text;strokeColor=default;fillColor=none;align=left;verticalAlign=top;spacingLeft=4;spacingRight=4;overflow=hidden;rotatable=0;points=[[0,0.5],[1,0.5]];portConstraint=eastwest;" parent="56" vertex="1">
                    <mxGeometry y="26" width="140" height="24" as="geometry"/>
                </mxCell>
                <mxCell id="58" value="+發送還書提醒" style="text;strokeColor=default;fillColor=none;align=left;verticalAlign=top;spacingLeft=4;spacingRight=4;overflow=hidden;rotatable=0;points=[[0,0.5],[1,0.5]];portConstraint=eastwest;" parent="56" vertex="1">
                    <mxGeometry y="50" width="140" height="30" as="geometry"/>
                </mxCell>
                <mxCell id="59" value="逾期通知" style="swimlane;fontStyle=0;childLayout=stackLayout;horizontal=1;startSize=26;fillColor=none;horizontalStack=0;resizeParent=1;resizeParentMax=0;resizeLast=0;collapsible=1;marginBottom=0;" parent="1" vertex="1">
                    <mxGeometry x="480" y="810" width="140" height="80" as="geometry"/>
                </mxCell>
                <mxCell id="60" value="+提知日期&#10;&#10;&#10;&#10;" style="text;strokeColor=default;fillColor=none;align=left;verticalAlign=top;spacingLeft=4;spacingRight=4;overflow=hidden;rotatable=0;points=[[0,0.5],[1,0.5]];portConstraint=eastwest;" parent="59" vertex="1">
                    <mxGeometry y="26" width="140" height="24" as="geometry"/>
                </mxCell>
                <mxCell id="61" value="+發送逾期通知" style="text;strokeColor=default;fillColor=none;align=left;verticalAlign=top;spacingLeft=4;spacingRight=4;overflow=hidden;rotatable=0;points=[[0,0.5],[1,0.5]];portConstraint=eastwest;" parent="59" vertex="1">
                    <mxGeometry y="50" width="140" height="30" as="geometry"/>
                </mxCell>
                <mxCell id="88" value="1" style="text;html=1;align=center;verticalAlign=middle;resizable=0;points=[];autosize=1;strokeColor=none;fillColor=none;" parent="1" vertex="1">
                    <mxGeometry x="675" y="475" width="30" height="30" as="geometry"/>
                </mxCell>
                <mxCell id="89" value="0..*" style="text;html=1;align=center;verticalAlign=middle;resizable=0;points=[];autosize=1;strokeColor=none;fillColor=none;fontSize=15;" parent="1" vertex="1">
                    <mxGeometry x="675" y="560" width="50" height="30" as="geometry"/>
                </mxCell>
                <mxCell id="90" value="" style="triangle;whiteSpace=wrap;html=1;strokeColor=default;rotation=90;" parent="1" vertex="1">
                    <mxGeometry x="660" y="541" width="10" height="14" as="geometry"/>
                </mxCell>
                <mxCell id="93" value="1" style="text;html=1;align=center;verticalAlign=middle;resizable=0;points=[];autosize=1;strokeColor=none;fillColor=none;fontSize=15;" parent="1" vertex="1">
                    <mxGeometry x="430" y="400" width="30" height="30" as="geometry"/>
                </mxCell>
                <mxCell id="94" value="0..*" style="text;html=1;align=center;verticalAlign=middle;resizable=0;points=[];autosize=1;strokeColor=none;fillColor=none;fontSize=15;" parent="1" vertex="1">
                    <mxGeometry x="565" y="600" width="50" height="30" as="geometry"/>
                </mxCell>
                <mxCell id="95" value="擁&lt;br&gt;有" style="text;html=1;align=center;verticalAlign=middle;resizable=0;points=[];autosize=1;strokeColor=none;fillColor=none;" parent="1" vertex="1">
                    <mxGeometry x="510" y="430" width="40" height="40" as="geometry"/>
                </mxCell>
                <mxCell id="96" value="" style="triangle;whiteSpace=wrap;html=1;strokeColor=default;rotation=90;" parent="1" vertex="1">
                    <mxGeometry x="525" y="470" width="10" height="14" as="geometry"/>
                </mxCell>
                <mxCell id="97" value="1" style="text;html=1;align=center;verticalAlign=middle;resizable=0;points=[];autosize=1;strokeColor=none;fillColor=none;fontSize=15;" parent="1" vertex="1">
                    <mxGeometry x="430" y="650" width="30" height="30" as="geometry"/>
                </mxCell>
                <mxCell id="98" value="0..*" style="text;html=1;align=center;verticalAlign=middle;resizable=0;points=[];autosize=1;strokeColor=none;fillColor=none;fontSize=15;" parent="1" vertex="1">
                    <mxGeometry x="566" y="660" width="50" height="30" as="geometry"/>
                </mxCell>
                <mxCell id="99" value="" style="triangle;whiteSpace=wrap;html=1;strokeColor=default;rotation=0;" parent="1" vertex="1">
                    <mxGeometry x="500" y="668" width="10" height="14" as="geometry"/>
                </mxCell>
                <mxCell id="100" value="管理" style="text;html=1;align=center;verticalAlign=middle;resizable=0;points=[];autosize=1;strokeColor=none;fillColor=none;" parent="1" vertex="1">
                    <mxGeometry x="460" y="660" width="50" height="30" as="geometry"/>
                </mxCell>
                <mxCell id="101" value="1" style="text;html=1;align=center;verticalAlign=middle;resizable=0;points=[];autosize=1;strokeColor=none;fillColor=none;fontSize=15;" parent="1" vertex="1">
                    <mxGeometry x="332" y="754" width="30" height="30" as="geometry"/>
                </mxCell>
                <mxCell id="102" value="0..*" style="text;html=1;align=center;verticalAlign=middle;resizable=0;points=[];autosize=1;strokeColor=none;fillColor=none;fontSize=15;" parent="1" vertex="1">
                    <mxGeometry x="322" y="840" width="50" height="30" as="geometry"/>
                </mxCell>
                <mxCell id="103" value="設&lt;br&gt;置" style="text;html=1;align=center;verticalAlign=middle;resizable=0;points=[];autosize=1;strokeColor=none;fillColor=none;" parent="1" vertex="1">
                    <mxGeometry x="327" y="784" width="40" height="40" as="geometry"/>
                </mxCell>
                <mxCell id="104" value="" style="triangle;whiteSpace=wrap;html=1;strokeColor=default;rotation=90;" parent="1" vertex="1">
                    <mxGeometry x="342" y="824" width="10" height="14" as="geometry"/>
                </mxCell>
                <mxCell id="106" value="設置" style="text;html=1;align=center;verticalAlign=middle;resizable=0;points=[];autosize=1;strokeColor=none;fillColor=none;" parent="1" vertex="1">
                    <mxGeometry x="473" y="762" width="50" height="30" as="geometry"/>
                </mxCell>
                <mxCell id="107" value="" style="triangle;whiteSpace=wrap;html=1;strokeColor=default;rotation=0;" parent="1" vertex="1">
                    <mxGeometry x="515" y="770" width="10" height="14" as="geometry"/>
                </mxCell>
                <mxCell id="108" value="1" style="text;html=1;align=center;verticalAlign=middle;resizable=0;points=[];autosize=1;strokeColor=none;fillColor=none;fontSize=15;" parent="1" vertex="1">
                    <mxGeometry x="395" y="753" width="30" height="30" as="geometry"/>
                </mxCell>
                <mxCell id="109" value="0..*" style="text;html=1;align=center;verticalAlign=middle;resizable=0;points=[];autosize=1;strokeColor=none;fillColor=none;fontSize=15;" parent="1" vertex="1">
                    <mxGeometry x="543" y="782" width="50" height="30" as="geometry"/>
                </mxCell>
                <mxCell id="111" style="edgeStyle=none;rounded=0;html=1;startArrow=none;startFill=0;endArrow=none;endFill=0;" parent="1" edge="1">
                    <mxGeometry relative="1" as="geometry">
                        <mxPoint x="290" y="398" as="sourcePoint"/>
                        <mxPoint x="210" y="398" as="targetPoint"/>
                    </mxGeometry>
                </mxCell>
                <mxCell id="115" value="包含" style="text;html=1;align=center;verticalAlign=middle;resizable=0;points=[];autosize=1;strokeColor=none;fillColor=none;" parent="1" vertex="1">
                    <mxGeometry x="130" y="241" width="50" height="30" as="geometry"/>
                </mxCell>
                <mxCell id="118" value="" style="triangle;whiteSpace=wrap;html=1;strokeColor=default;rotation=0;" parent="1" vertex="1">
                    <mxGeometry x="170" y="249" width="10" height="14" as="geometry"/>
                </mxCell>
                <mxCell id="119" value="1" style="text;html=1;align=center;verticalAlign=middle;resizable=0;points=[];autosize=1;strokeColor=none;fillColor=none;fontSize=15;" parent="1" vertex="1">
                    <mxGeometry x="109" y="301" width="30" height="30" as="geometry"/>
                </mxCell>
                <mxCell id="120" value="0..*" style="text;html=1;align=center;verticalAlign=middle;resizable=0;points=[];autosize=1;strokeColor=none;fillColor=none;fontSize=15;" parent="1" vertex="1">
                    <mxGeometry x="668" y="302" width="50" height="30" as="geometry"/>
                </mxCell>
                <mxCell id="122" value="" style="triangle;whiteSpace=wrap;html=1;strokeColor=default;rotation=-180;" parent="1" vertex="1">
                    <mxGeometry x="210" y="650" width="10" height="14" as="geometry"/>
                </mxCell>
                <mxCell id="123" value="1" style="text;html=1;align=center;verticalAlign=middle;resizable=0;points=[];autosize=1;strokeColor=none;fillColor=none;fontSize=15;" parent="1" vertex="1">
                    <mxGeometry x="263" y="642" width="30" height="30" as="geometry"/>
                </mxCell>
                <mxCell id="124" value="0..*" style="text;html=1;align=center;verticalAlign=middle;resizable=0;points=[];autosize=1;strokeColor=none;fillColor=none;fontSize=15;" parent="1" vertex="1">
                    <mxGeometry x="130" y="570" width="50" height="30" as="geometry"/>
                </mxCell>
                <mxCell id="125" value="被&lt;br&gt;借&lt;br&gt;閱" style="text;html=1;align=center;verticalAlign=middle;resizable=0;points=[];autosize=1;strokeColor=none;fillColor=none;" parent="1" vertex="1">
                    <mxGeometry x="645" y="484" width="40" height="60" as="geometry"/>
                </mxCell>
                <mxCell id="126" value="1" style="text;html=1;align=center;verticalAlign=middle;resizable=0;points=[];autosize=1;strokeColor=none;fillColor=none;fontSize=15;" parent="1" vertex="1">
                    <mxGeometry x="60" y="570" width="30" height="30" as="geometry"/>
                </mxCell>
                <mxCell id="128" value="查&lt;br&gt;看" style="text;html=1;align=center;verticalAlign=middle;resizable=0;points=[];autosize=1;strokeColor=none;fillColor=none;" parent="1" vertex="1">
                    <mxGeometry x="75" y="595" width="40" height="40" as="geometry"/>
                </mxCell>
                <mxCell id="129" value="" style="triangle;whiteSpace=wrap;html=1;strokeColor=default;rotation=90;" parent="1" vertex="1">
                    <mxGeometry x="90" y="636" width="10" height="14" as="geometry"/>
                </mxCell>
                <mxCell id="130" value="1" style="text;html=1;align=center;verticalAlign=middle;resizable=0;points=[];autosize=1;strokeColor=none;fillColor=none;fontSize=15;" parent="1" vertex="1">
                    <mxGeometry x="210" y="370" width="30" height="30" as="geometry"/>
                </mxCell>
                <mxCell id="131" value="0..*" style="text;html=1;align=center;verticalAlign=middle;resizable=0;points=[];autosize=1;strokeColor=none;fillColor=none;fontSize=15;" parent="1" vertex="1">
                    <mxGeometry x="253" y="370" width="50" height="30" as="geometry"/>
                </mxCell>
                <mxCell id="132" value="包含" style="text;html=1;align=center;verticalAlign=middle;resizable=0;points=[];autosize=1;strokeColor=none;fillColor=none;" parent="1" vertex="1">
                    <mxGeometry x="210" y="400" width="50" height="30" as="geometry"/>
                </mxCell>
                <mxCell id="133" value="" style="triangle;whiteSpace=wrap;html=1;strokeColor=default;rotation=0;" parent="1" vertex="1">
                    <mxGeometry x="250" y="408" width="10" height="14" as="geometry"/>
                </mxCell>
                <mxCell id="134" value="1" style="text;html=1;align=center;verticalAlign=middle;resizable=0;points=[];autosize=1;strokeColor=none;fillColor=none;fontSize=15;" parent="1" vertex="1">
                    <mxGeometry x="688" y="740" width="30" height="30" as="geometry"/>
                </mxCell>
                <mxCell id="135" value="管理" style="text;html=1;align=center;verticalAlign=middle;resizable=0;points=[];autosize=1;strokeColor=none;fillColor=none;" parent="1" vertex="1">
                    <mxGeometry x="210" y="642" width="50" height="30" as="geometry"/>
                </mxCell>
            </root>
        </mxGraphModel>
    </diagram>
    <diagram id="ssV8az6NqnitllngiJCn" name="使用者案例圖">
        <mxGraphModel dx="1354" dy="1075" grid="1" gridSize="10" guides="1" tooltips="1" connect="1" arrows="1" fold="1" page="1" pageScale="1" pageWidth="827" pageHeight="1169" math="0" shadow="0">
            <root>
                <mxCell id="0"/>
                <mxCell id="1" parent="0"/>
                <mxCell id="fLgtoDmrU4cJctjVo-yT-24" style="edgeStyle=none;html=1;entryX=0;entryY=0.5;entryDx=0;entryDy=0;fontSize=18;" edge="1" parent="1" source="fLgtoDmrU4cJctjVo-yT-1" target="fLgtoDmrU4cJctjVo-yT-14">
                    <mxGeometry relative="1" as="geometry"/>
                </mxCell>
                <mxCell id="fLgtoDmrU4cJctjVo-yT-25" style="edgeStyle=none;html=1;entryX=0;entryY=0.5;entryDx=0;entryDy=0;fontSize=18;" edge="1" parent="1" source="fLgtoDmrU4cJctjVo-yT-1" target="fLgtoDmrU4cJctjVo-yT-15">
                    <mxGeometry relative="1" as="geometry"/>
                </mxCell>
                <mxCell id="fLgtoDmrU4cJctjVo-yT-26" style="edgeStyle=none;html=1;entryX=0;entryY=0.5;entryDx=0;entryDy=0;fontSize=18;" edge="1" parent="1" source="fLgtoDmrU4cJctjVo-yT-1" target="fLgtoDmrU4cJctjVo-yT-16">
                    <mxGeometry relative="1" as="geometry"/>
                </mxCell>
                <mxCell id="fLgtoDmrU4cJctjVo-yT-27" style="edgeStyle=none;html=1;entryX=0;entryY=0.5;entryDx=0;entryDy=0;fontSize=18;" edge="1" parent="1" source="fLgtoDmrU4cJctjVo-yT-1" target="fLgtoDmrU4cJctjVo-yT-23">
                    <mxGeometry relative="1" as="geometry"/>
                </mxCell>
                <mxCell id="fLgtoDmrU4cJctjVo-yT-28" style="edgeStyle=none;html=1;entryX=-0.023;entryY=0.38;entryDx=0;entryDy=0;entryPerimeter=0;fontSize=18;" edge="1" parent="1" source="fLgtoDmrU4cJctjVo-yT-1" target="fLgtoDmrU4cJctjVo-yT-22">
                    <mxGeometry relative="1" as="geometry"/>
                </mxCell>
                <mxCell id="fLgtoDmrU4cJctjVo-yT-29" style="edgeStyle=none;html=1;entryX=0;entryY=0.5;entryDx=0;entryDy=0;fontSize=18;" edge="1" parent="1" source="fLgtoDmrU4cJctjVo-yT-1" target="fLgtoDmrU4cJctjVo-yT-17">
                    <mxGeometry relative="1" as="geometry"/>
                </mxCell>
                <mxCell id="fLgtoDmrU4cJctjVo-yT-30" style="edgeStyle=none;html=1;entryX=0;entryY=0.5;entryDx=0;entryDy=0;fontSize=18;endArrow=none;endFill=0;" edge="1" parent="1" source="fLgtoDmrU4cJctjVo-yT-1" target="fLgtoDmrU4cJctjVo-yT-20">
                    <mxGeometry relative="1" as="geometry"/>
                </mxCell>
                <mxCell id="fLgtoDmrU4cJctjVo-yT-1" value="&lt;font style=&quot;font-size: 20px;&quot;&gt;讀者&lt;/font&gt;" style="shape=umlActor;verticalLabelPosition=bottom;verticalAlign=top;html=1;outlineConnect=0;" vertex="1" parent="1">
                    <mxGeometry x="70" y="370" width="100" height="200" as="geometry"/>
                </mxCell>
                <mxCell id="fLgtoDmrU4cJctjVo-yT-34" style="edgeStyle=none;html=1;entryX=1;entryY=0.5;entryDx=0;entryDy=0;fontSize=18;endArrow=none;endFill=0;" edge="1" parent="1" source="fLgtoDmrU4cJctjVo-yT-5" target="fLgtoDmrU4cJctjVo-yT-18">
                    <mxGeometry relative="1" as="geometry"/>
                </mxCell>
                <mxCell id="fLgtoDmrU4cJctjVo-yT-5" value="&lt;font style=&quot;font-size: 20px;&quot;&gt;供應商/出版商&lt;/font&gt;" style="shape=umlActor;verticalLabelPosition=bottom;verticalAlign=top;html=1;outlineConnect=0;" vertex="1" parent="1">
                    <mxGeometry x="650" y="800" width="100" height="200" as="geometry"/>
                </mxCell>
                <mxCell id="fLgtoDmrU4cJctjVo-yT-32" style="edgeStyle=none;html=1;entryX=1;entryY=0;entryDx=0;entryDy=0;fontSize=18;endArrow=none;endFill=0;" edge="1" parent="1" source="fLgtoDmrU4cJctjVo-yT-6" target="fLgtoDmrU4cJctjVo-yT-19">
                    <mxGeometry relative="1" as="geometry"/>
                </mxCell>
                <mxCell id="fLgtoDmrU4cJctjVo-yT-33" style="edgeStyle=none;html=1;entryX=1;entryY=0;entryDx=0;entryDy=0;fontSize=18;endArrow=none;endFill=0;" edge="1" parent="1" source="fLgtoDmrU4cJctjVo-yT-6" target="fLgtoDmrU4cJctjVo-yT-18">
                    <mxGeometry relative="1" as="geometry"/>
                </mxCell>
                <mxCell id="fLgtoDmrU4cJctjVo-yT-36" style="edgeStyle=none;html=1;entryX=1;entryY=0.5;entryDx=0;entryDy=0;fontSize=18;" edge="1" parent="1" source="fLgtoDmrU4cJctjVo-yT-6" target="fLgtoDmrU4cJctjVo-yT-14">
                    <mxGeometry relative="1" as="geometry"/>
                </mxCell>
                <mxCell id="fLgtoDmrU4cJctjVo-yT-37" style="edgeStyle=none;html=1;entryX=1;entryY=0.5;entryDx=0;entryDy=0;fontSize=18;endArrow=none;endFill=0;" edge="1" parent="1" source="fLgtoDmrU4cJctjVo-yT-6" target="fLgtoDmrU4cJctjVo-yT-22">
                    <mxGeometry relative="1" as="geometry"/>
                </mxCell>
                <mxCell id="fLgtoDmrU4cJctjVo-yT-38" style="edgeStyle=none;html=1;entryX=1;entryY=0;entryDx=0;entryDy=0;fontSize=18;endArrow=none;endFill=0;" edge="1" parent="1" source="fLgtoDmrU4cJctjVo-yT-6" target="fLgtoDmrU4cJctjVo-yT-17">
                    <mxGeometry relative="1" as="geometry"/>
                </mxCell>
                <mxCell id="fLgtoDmrU4cJctjVo-yT-6" value="&lt;font style=&quot;font-size: 20px;&quot;&gt;管理員&lt;/font&gt;" style="shape=umlActor;verticalLabelPosition=bottom;verticalAlign=top;html=1;outlineConnect=0;" vertex="1" parent="1">
                    <mxGeometry x="640" y="455" width="100" height="200" as="geometry"/>
                </mxCell>
                <mxCell id="fLgtoDmrU4cJctjVo-yT-7" value="&lt;font style=&quot;font-size: 18px;&quot;&gt;圖書借閱系統&lt;/font&gt;" style="swimlane;whiteSpace=wrap;html=1;" vertex="1" parent="1">
                    <mxGeometry x="290" y="40" width="220" height="1030" as="geometry"/>
                </mxCell>
                <mxCell id="fLgtoDmrU4cJctjVo-yT-14" value="註冊" style="ellipse;whiteSpace=wrap;html=1;fontSize=20;" vertex="1" parent="fLgtoDmrU4cJctjVo-yT-7">
                    <mxGeometry x="50" y="50" width="120" height="80" as="geometry"/>
                </mxCell>
                <mxCell id="fLgtoDmrU4cJctjVo-yT-23" value="&lt;div&gt;查看圖書詳細&lt;/div&gt;&lt;div&gt;信息&lt;/div&gt;" style="ellipse;whiteSpace=wrap;html=1;fontSize=20;" vertex="1" parent="fLgtoDmrU4cJctjVo-yT-7">
                    <mxGeometry x="50" y="390" width="130" height="80" as="geometry"/>
                </mxCell>
                <mxCell id="fLgtoDmrU4cJctjVo-yT-22" value="借書" style="ellipse;whiteSpace=wrap;html=1;fontSize=20;" vertex="1" parent="fLgtoDmrU4cJctjVo-yT-7">
                    <mxGeometry x="50" y="500" width="120" height="80" as="geometry"/>
                </mxCell>
                <mxCell id="fLgtoDmrU4cJctjVo-yT-20" value="查看借書歷史" style="ellipse;whiteSpace=wrap;html=1;fontSize=20;" vertex="1" parent="fLgtoDmrU4cJctjVo-yT-7">
                    <mxGeometry x="50" y="700" width="130" height="80" as="geometry"/>
                </mxCell>
                <mxCell id="fLgtoDmrU4cJctjVo-yT-19" value="&lt;div&gt;審核讀者註冊&lt;/div&gt;&lt;div&gt;信息&lt;/div&gt;" style="ellipse;whiteSpace=wrap;html=1;fontSize=20;" vertex="1" parent="fLgtoDmrU4cJctjVo-yT-7">
                    <mxGeometry x="50" y="800" width="140" height="80" as="geometry"/>
                </mxCell>
                <mxCell id="fLgtoDmrU4cJctjVo-yT-18" value="更新圖書信息" style="ellipse;whiteSpace=wrap;html=1;fontSize=20;" vertex="1" parent="fLgtoDmrU4cJctjVo-yT-7">
                    <mxGeometry x="50" y="910" width="130" height="80" as="geometry"/>
                </mxCell>
                <mxCell id="fLgtoDmrU4cJctjVo-yT-17" value="接收還書提醒" style="ellipse;whiteSpace=wrap;html=1;fontSize=20;" vertex="1" parent="fLgtoDmrU4cJctjVo-yT-7">
                    <mxGeometry x="50" y="600" width="130" height="80" as="geometry"/>
                </mxCell>
                <mxCell id="fLgtoDmrU4cJctjVo-yT-16" value="查詢圖書" style="ellipse;whiteSpace=wrap;html=1;fontSize=20;" vertex="1" parent="fLgtoDmrU4cJctjVo-yT-7">
                    <mxGeometry x="50" y="270" width="120" height="80" as="geometry"/>
                </mxCell>
                <mxCell id="fLgtoDmrU4cJctjVo-yT-15" value="登入" style="ellipse;whiteSpace=wrap;html=1;fontSize=20;" vertex="1" parent="fLgtoDmrU4cJctjVo-yT-7">
                    <mxGeometry x="50" y="150" width="120" height="80" as="geometry"/>
                </mxCell>
                <mxCell id="fLgtoDmrU4cJctjVo-yT-39" style="edgeStyle=none;html=1;entryX=1;entryY=0.5;entryDx=0;entryDy=0;fontSize=18;endArrow=none;endFill=0;" edge="1" parent="1">
                    <mxGeometry relative="1" as="geometry">
                        <mxPoint x="640" y="462.60869565217376" as="sourcePoint"/>
                        <mxPoint x="460" y="130" as="targetPoint"/>
                    </mxGeometry>
                </mxCell>
                <mxCell id="fLgtoDmrU4cJctjVo-yT-40" style="edgeStyle=none;html=1;entryX=0;entryY=0.5;entryDx=0;entryDy=0;fontSize=18;endArrow=none;endFill=0;" edge="1" parent="1">
                    <mxGeometry relative="1" as="geometry">
                        <mxPoint x="170.0000000000001" y="392.72727272727275" as="sourcePoint"/>
                        <mxPoint x="340" y="130" as="targetPoint"/>
                    </mxGeometry>
                </mxCell>
                <mxCell id="fLgtoDmrU4cJctjVo-yT-41" style="edgeStyle=none;html=1;entryX=0;entryY=0.5;entryDx=0;entryDy=0;fontSize=18;endArrow=none;endFill=0;" edge="1" parent="1">
                    <mxGeometry relative="1" as="geometry">
                        <mxPoint x="170.0000000000001" y="415.45454545454527" as="sourcePoint"/>
                        <mxPoint x="340" y="230" as="targetPoint"/>
                    </mxGeometry>
                </mxCell>
                <mxCell id="fLgtoDmrU4cJctjVo-yT-42" style="edgeStyle=none;html=1;entryX=0;entryY=0.5;entryDx=0;entryDy=0;fontSize=18;endArrow=none;endFill=0;" edge="1" parent="1">
                    <mxGeometry relative="1" as="geometry">
                        <mxPoint x="170.0000000000001" y="442.72727272727275" as="sourcePoint"/>
                        <mxPoint x="340" y="350" as="targetPoint"/>
                    </mxGeometry>
                </mxCell>
                <mxCell id="fLgtoDmrU4cJctjVo-yT-43" style="edgeStyle=none;html=1;entryX=0;entryY=0.5;entryDx=0;entryDy=0;fontSize=18;endArrow=none;endFill=0;" edge="1" parent="1">
                    <mxGeometry relative="1" as="geometry">
                        <mxPoint x="170.0000000000001" y="470" as="sourcePoint"/>
                        <mxPoint x="340" y="470" as="targetPoint"/>
                    </mxGeometry>
                </mxCell>
                <mxCell id="fLgtoDmrU4cJctjVo-yT-44" style="edgeStyle=none;html=1;entryX=-0.023;entryY=0.38;entryDx=0;entryDy=0;entryPerimeter=0;fontSize=18;endArrow=none;endFill=0;" edge="1" parent="1">
                    <mxGeometry relative="1" as="geometry">
                        <mxPoint x="170.0000000000001" y="493.10808322592516" as="sourcePoint"/>
                        <mxPoint x="337.24" y="570.3999999999999" as="targetPoint"/>
                    </mxGeometry>
                </mxCell>
                <mxCell id="fLgtoDmrU4cJctjVo-yT-45" style="edgeStyle=none;html=1;entryX=0;entryY=0.5;entryDx=0;entryDy=0;fontSize=18;endArrow=none;endFill=0;" edge="1" parent="1">
                    <mxGeometry relative="1" as="geometry">
                        <mxPoint x="170.0000000000001" y="517.7272727272727" as="sourcePoint"/>
                        <mxPoint x="340" y="680" as="targetPoint"/>
                    </mxGeometry>
                </mxCell>
            </root>
        </mxGraphModel>
    </diagram>
    <diagram id="XEt1t77sbBRAiKhXs80N" name="系統循序圖(英)">
        <mxGraphModel dx="1035" dy="822" grid="1" gridSize="10" guides="1" tooltips="1" connect="1" arrows="1" fold="1" page="1" pageScale="1" pageWidth="827" pageHeight="1169" math="0" shadow="0">
            <root>
                <mxCell id="0"/>
                <mxCell id="1" parent="0"/>
                <mxCell id="W1E-KaIqsvkaFA8WqOx8-1" style="edgeStyle=none;html=1;exitX=0.5;exitY=0.5;exitDx=0;exitDy=0;exitPerimeter=0;dashed=1;endArrow=none;endFill=0;" edge="1" parent="1" source="W1E-KaIqsvkaFA8WqOx8-2">
                    <mxGeometry relative="1" as="geometry">
                        <mxPoint x="115" y="830" as="targetPoint"/>
                    </mxGeometry>
                </mxCell>
                <mxCell id="W1E-KaIqsvkaFA8WqOx8-2" value="&lt;span style=&quot;color: rgb(230, 237, 243); font-family: -apple-system, BlinkMacSystemFont, &amp;quot;Segoe UI&amp;quot;, &amp;quot;Noto Sans&amp;quot;, Helvetica, Arial, sans-serif, &amp;quot;Apple Color Emoji&amp;quot;, &amp;quot;Segoe UI Emoji&amp;quot;; font-size: 16px; text-align: start; background-color: rgb(22, 27, 34);&quot;&gt;讀者&lt;/span&gt;" style="shape=umlActor;verticalLabelPosition=bottom;verticalAlign=top;html=1;outlineConnect=0;" vertex="1" parent="1">
                    <mxGeometry x="100" y="20" width="30" height="60" as="geometry"/>
                </mxCell>
                <mxCell id="W1E-KaIqsvkaFA8WqOx8-3" style="edgeStyle=none;html=1;exitX=0.5;exitY=0.5;exitDx=0;exitDy=0;exitPerimeter=0;dashed=1;endArrow=none;endFill=0;" edge="1" parent="1" source="W1E-KaIqsvkaFA8WqOx8-4">
                    <mxGeometry relative="1" as="geometry">
                        <mxPoint x="275.0000000000002" y="830" as="targetPoint"/>
                    </mxGeometry>
                </mxCell>
                <mxCell id="W1E-KaIqsvkaFA8WqOx8-4" value="&lt;span style=&quot;color: rgb(230, 237, 243); font-family: -apple-system, BlinkMacSystemFont, &amp;quot;Segoe UI&amp;quot;, &amp;quot;Noto Sans&amp;quot;, Helvetica, Arial, sans-serif, &amp;quot;Apple Color Emoji&amp;quot;, &amp;quot;Segoe UI Emoji&amp;quot;; font-size: 16px; text-align: start; background-color: rgb(13, 17, 23);&quot;&gt;管理者&lt;/span&gt;" style="shape=umlActor;verticalLabelPosition=bottom;verticalAlign=top;html=1;outlineConnect=0;" vertex="1" parent="1">
                    <mxGeometry x="260" y="20" width="30" height="60" as="geometry"/>
                </mxCell>
                <mxCell id="W1E-KaIqsvkaFA8WqOx8-5" style="edgeStyle=none;html=1;exitX=0.5;exitY=0.5;exitDx=0;exitDy=0;exitPerimeter=0;dashed=1;endArrow=none;endFill=0;" edge="1" parent="1" source="W1E-KaIqsvkaFA8WqOx8-6">
                    <mxGeometry relative="1" as="geometry">
                        <mxPoint x="425.0000000000002" y="830" as="targetPoint"/>
                    </mxGeometry>
                </mxCell>
                <mxCell id="W1E-KaIqsvkaFA8WqOx8-6" value="&lt;span style=&quot;color: rgb(230, 237, 243); font-family: -apple-system, BlinkMacSystemFont, &amp;quot;Segoe UI&amp;quot;, &amp;quot;Noto Sans&amp;quot;, Helvetica, Arial, sans-serif, &amp;quot;Apple Color Emoji&amp;quot;, &amp;quot;Segoe UI Emoji&amp;quot;; font-size: 16px; text-align: start; background-color: rgb(22, 27, 34);&quot;&gt;供應商/出版商&lt;/span&gt;" style="shape=umlActor;verticalLabelPosition=bottom;verticalAlign=top;html=1;outlineConnect=0;" vertex="1" parent="1">
                    <mxGeometry x="410" y="20" width="30" height="60" as="geometry"/>
                </mxCell>
                <mxCell id="W1E-KaIqsvkaFA8WqOx8-7" style="edgeStyle=none;html=1;endArrow=none;endFill=0;dashed=1;" edge="1" parent="1" source="W1E-KaIqsvkaFA8WqOx8-8" target="W1E-KaIqsvkaFA8WqOx8-14">
                    <mxGeometry relative="1" as="geometry"/>
                </mxCell>
                <mxCell id="W1E-KaIqsvkaFA8WqOx8-8" value="" style="html=1;points=[];perimeter=orthogonalPerimeter;" vertex="1" parent="1">
                    <mxGeometry x="670" y="130" width="20" height="40" as="geometry"/>
                </mxCell>
                <mxCell id="W1E-KaIqsvkaFA8WqOx8-9" style="edgeStyle=none;html=1;entryX=0.53;entryY=0.05;entryDx=0;entryDy=0;entryPerimeter=0;dashed=1;endArrow=none;endFill=0;" edge="1" parent="1" source="W1E-KaIqsvkaFA8WqOx8-10" target="W1E-KaIqsvkaFA8WqOx8-8">
                    <mxGeometry relative="1" as="geometry"/>
                </mxCell>
                <mxCell id="W1E-KaIqsvkaFA8WqOx8-10" value="借書系統" style="rounded=0;whiteSpace=wrap;html=1;" vertex="1" parent="1">
                    <mxGeometry x="620" y="20" width="120" height="60" as="geometry"/>
                </mxCell>
                <mxCell id="W1E-KaIqsvkaFA8WqOx8-11" value="" style="endArrow=classic;html=1;entryX=0;entryY=0.25;entryDx=0;entryDy=0;entryPerimeter=0;" edge="1" parent="1" target="W1E-KaIqsvkaFA8WqOx8-8">
                    <mxGeometry width="50" height="50" relative="1" as="geometry">
                        <mxPoint x="120" y="140" as="sourcePoint"/>
                        <mxPoint x="440" y="260" as="targetPoint"/>
                    </mxGeometry>
                </mxCell>
                <mxCell id="W1E-KaIqsvkaFA8WqOx8-12" value="register()" style="text;html=1;strokeColor=none;fillColor=none;align=center;verticalAlign=middle;whiteSpace=wrap;rounded=0;" vertex="1" parent="1">
                    <mxGeometry x="120" y="110" width="60" height="30" as="geometry"/>
                </mxCell>
                <mxCell id="W1E-KaIqsvkaFA8WqOx8-13" style="edgeStyle=none;html=1;dashed=1;endArrow=none;endFill=0;" edge="1" parent="1" source="W1E-KaIqsvkaFA8WqOx8-14" target="W1E-KaIqsvkaFA8WqOx8-20">
                    <mxGeometry relative="1" as="geometry"/>
                </mxCell>
                <mxCell id="W1E-KaIqsvkaFA8WqOx8-14" value="" style="html=1;points=[];perimeter=orthogonalPerimeter;" vertex="1" parent="1">
                    <mxGeometry x="670" y="200" width="20" height="40" as="geometry"/>
                </mxCell>
                <mxCell id="W1E-KaIqsvkaFA8WqOx8-15" value="" style="endArrow=classic;html=1;dashed=1;exitX=-0.03;exitY=0.87;exitDx=0;exitDy=0;exitPerimeter=0;" edge="1" parent="1" source="W1E-KaIqsvkaFA8WqOx8-8">
                    <mxGeometry width="50" height="50" relative="1" as="geometry">
                        <mxPoint x="390" y="310" as="sourcePoint"/>
                        <mxPoint x="120" y="165" as="targetPoint"/>
                    </mxGeometry>
                </mxCell>
                <mxCell id="W1E-KaIqsvkaFA8WqOx8-16" value="" style="endArrow=classic;html=1;" edge="1" parent="1">
                    <mxGeometry width="50" height="50" relative="1" as="geometry">
                        <mxPoint x="120" y="210" as="sourcePoint"/>
                        <mxPoint x="670.0000000000002" y="210" as="targetPoint"/>
                    </mxGeometry>
                </mxCell>
                <mxCell id="W1E-KaIqsvkaFA8WqOx8-17" value="login()" style="text;html=1;strokeColor=none;fillColor=none;align=center;verticalAlign=middle;whiteSpace=wrap;rounded=0;" vertex="1" parent="1">
                    <mxGeometry x="120" y="180" width="60" height="30" as="geometry"/>
                </mxCell>
                <mxCell id="W1E-KaIqsvkaFA8WqOx8-18" value="&lt;span class=&quot;hljs-title function_&quot;&gt;searchBooks&lt;/span&gt;()" style="text;html=1;strokeColor=none;fillColor=none;align=center;verticalAlign=middle;whiteSpace=wrap;rounded=0;" vertex="1" parent="1">
                    <mxGeometry x="140" y="260" width="60" height="30" as="geometry"/>
                </mxCell>
                <mxCell id="W1E-KaIqsvkaFA8WqOx8-19" style="edgeStyle=none;html=1;dashed=1;endArrow=none;endFill=0;" edge="1" parent="1" source="W1E-KaIqsvkaFA8WqOx8-20" target="W1E-KaIqsvkaFA8WqOx8-25">
                    <mxGeometry relative="1" as="geometry"/>
                </mxCell>
                <mxCell id="W1E-KaIqsvkaFA8WqOx8-20" value="" style="html=1;points=[];perimeter=orthogonalPerimeter;" vertex="1" parent="1">
                    <mxGeometry x="670" y="280" width="20" height="40" as="geometry"/>
                </mxCell>
                <mxCell id="W1E-KaIqsvkaFA8WqOx8-21" value="&lt;span class=&quot;hljs-title function_&quot;&gt;confirmLogin&lt;/span&gt;()" style="text;html=1;strokeColor=none;fillColor=none;align=center;verticalAlign=middle;whiteSpace=wrap;rounded=0;" vertex="1" parent="1">
                    <mxGeometry x="140" y="210" width="60" height="30" as="geometry"/>
                </mxCell>
                <mxCell id="W1E-KaIqsvkaFA8WqOx8-22" value="" style="endArrow=classic;html=1;dashed=1;exitX=-0.03;exitY=0.87;exitDx=0;exitDy=0;exitPerimeter=0;" edge="1" parent="1">
                    <mxGeometry width="50" height="50" relative="1" as="geometry">
                        <mxPoint x="669.4000000000001" y="235" as="sourcePoint"/>
                        <mxPoint x="120" y="235.20000000000005" as="targetPoint"/>
                    </mxGeometry>
                </mxCell>
                <mxCell id="W1E-KaIqsvkaFA8WqOx8-23" value="" style="endArrow=classic;html=1;entryX=0;entryY=0.25;entryDx=0;entryDy=0;entryPerimeter=0;" edge="1" parent="1">
                    <mxGeometry width="50" height="50" relative="1" as="geometry">
                        <mxPoint x="120" y="290" as="sourcePoint"/>
                        <mxPoint x="670.0000000000002" y="290" as="targetPoint"/>
                    </mxGeometry>
                </mxCell>
                <mxCell id="W1E-KaIqsvkaFA8WqOx8-24" style="edgeStyle=none;html=1;dashed=1;endArrow=none;endFill=0;" edge="1" parent="1" source="W1E-KaIqsvkaFA8WqOx8-25" target="W1E-KaIqsvkaFA8WqOx8-27">
                    <mxGeometry relative="1" as="geometry"/>
                </mxCell>
                <mxCell id="W1E-KaIqsvkaFA8WqOx8-25" value="" style="html=1;points=[];perimeter=orthogonalPerimeter;" vertex="1" parent="1">
                    <mxGeometry x="670" y="360" width="20" height="40" as="geometry"/>
                </mxCell>
                <mxCell id="W1E-KaIqsvkaFA8WqOx8-26" style="edgeStyle=none;html=1;dashed=1;endArrow=none;endFill=0;" edge="1" parent="1" source="W1E-KaIqsvkaFA8WqOx8-27" target="W1E-KaIqsvkaFA8WqOx8-36">
                    <mxGeometry relative="1" as="geometry"/>
                </mxCell>
                <mxCell id="W1E-KaIqsvkaFA8WqOx8-27" value="" style="html=1;points=[];perimeter=orthogonalPerimeter;" vertex="1" parent="1">
                    <mxGeometry x="670" y="440" width="20" height="40" as="geometry"/>
                </mxCell>
                <mxCell id="W1E-KaIqsvkaFA8WqOx8-28" value="&lt;span class=&quot;hljs-title function_&quot;&gt;borrowBook&lt;/span&gt;()" style="text;html=1;strokeColor=none;fillColor=none;align=center;verticalAlign=middle;whiteSpace=wrap;rounded=0;" vertex="1" parent="1">
                    <mxGeometry x="130" y="340" width="60" height="30" as="geometry"/>
                </mxCell>
                <mxCell id="W1E-KaIqsvkaFA8WqOx8-29" value="" style="endArrow=classic;html=1;entryX=0;entryY=0.25;entryDx=0;entryDy=0;entryPerimeter=0;" edge="1" parent="1">
                    <mxGeometry width="50" height="50" relative="1" as="geometry">
                        <mxPoint x="120" y="370" as="sourcePoint"/>
                        <mxPoint x="670.0000000000002" y="370" as="targetPoint"/>
                    </mxGeometry>
                </mxCell>
                <mxCell id="W1E-KaIqsvkaFA8WqOx8-30" value="" style="endArrow=classic;html=1;dashed=1;exitX=-0.03;exitY=0.87;exitDx=0;exitDy=0;exitPerimeter=0;" edge="1" parent="1">
                    <mxGeometry width="50" height="50" relative="1" as="geometry">
                        <mxPoint x="669.4000000000001" y="314" as="sourcePoint"/>
                        <mxPoint x="120" y="314.20000000000005" as="targetPoint"/>
                    </mxGeometry>
                </mxCell>
                <mxCell id="W1E-KaIqsvkaFA8WqOx8-31" value="" style="endArrow=classic;html=1;dashed=1;exitX=-0.03;exitY=0.87;exitDx=0;exitDy=0;exitPerimeter=0;" edge="1" parent="1">
                    <mxGeometry width="50" height="50" relative="1" as="geometry">
                        <mxPoint x="669.4000000000001" y="390" as="sourcePoint"/>
                        <mxPoint x="120" y="390.20000000000005" as="targetPoint"/>
                    </mxGeometry>
                </mxCell>
                <mxCell id="W1E-KaIqsvkaFA8WqOx8-32" value="" style="endArrow=classic;html=1;entryX=0;entryY=0.25;entryDx=0;entryDy=0;entryPerimeter=0;exitX=0;exitY=0;exitDx=0;exitDy=0;" edge="1" parent="1">
                    <mxGeometry width="50" height="50" relative="1" as="geometry">
                        <mxPoint x="273" y="530" as="sourcePoint"/>
                        <mxPoint x="669.9999999999998" y="530" as="targetPoint"/>
                    </mxGeometry>
                </mxCell>
                <mxCell id="W1E-KaIqsvkaFA8WqOx8-33" value="&lt;span class=&quot;hljs-title function_&quot;&gt;review&lt;/span&gt;()" style="text;html=1;strokeColor=none;fillColor=none;align=center;verticalAlign=middle;whiteSpace=wrap;rounded=0;" vertex="1" parent="1">
                    <mxGeometry x="280" y="500" width="60" height="30" as="geometry"/>
                </mxCell>
                <mxCell id="W1E-KaIqsvkaFA8WqOx8-34" value="" style="endArrow=classic;html=1;dashed=1;exitX=-0.03;exitY=0.87;exitDx=0;exitDy=0;exitPerimeter=0;" edge="1" parent="1">
                    <mxGeometry width="50" height="50" relative="1" as="geometry">
                        <mxPoint x="670.0000000000002" y="551.9999999999998" as="sourcePoint"/>
                        <mxPoint x="280.0000000000002" y="551.9999999999998" as="targetPoint"/>
                    </mxGeometry>
                </mxCell>
                <mxCell id="W1E-KaIqsvkaFA8WqOx8-35" style="edgeStyle=none;html=1;dashed=1;endArrow=none;endFill=0;" edge="1" parent="1" source="W1E-KaIqsvkaFA8WqOx8-36" target="W1E-KaIqsvkaFA8WqOx8-41">
                    <mxGeometry relative="1" as="geometry"/>
                </mxCell>
                <mxCell id="W1E-KaIqsvkaFA8WqOx8-36" value="" style="html=1;points=[];perimeter=orthogonalPerimeter;" vertex="1" parent="1">
                    <mxGeometry x="670" y="520" width="20" height="40" as="geometry"/>
                </mxCell>
                <mxCell id="W1E-KaIqsvkaFA8WqOx8-37" value="queryHistoryRecords()" style="text;html=1;strokeColor=none;fillColor=none;align=center;verticalAlign=middle;whiteSpace=wrap;rounded=0;" vertex="1" parent="1">
                    <mxGeometry x="130" y="420" width="120" height="30" as="geometry"/>
                </mxCell>
                <mxCell id="W1E-KaIqsvkaFA8WqOx8-38" value="" style="endArrow=classic;html=1;entryX=0;entryY=0.25;entryDx=0;entryDy=0;entryPerimeter=0;" edge="1" parent="1">
                    <mxGeometry width="50" height="50" relative="1" as="geometry">
                        <mxPoint x="120" y="450" as="sourcePoint"/>
                        <mxPoint x="670.0000000000002" y="450" as="targetPoint"/>
                    </mxGeometry>
                </mxCell>
                <mxCell id="W1E-KaIqsvkaFA8WqOx8-39" value="" style="endArrow=classic;html=1;dashed=1;exitX=-0.03;exitY=0.87;exitDx=0;exitDy=0;exitPerimeter=0;" edge="1" parent="1">
                    <mxGeometry width="50" height="50" relative="1" as="geometry">
                        <mxPoint x="669.4000000000001" y="470" as="sourcePoint"/>
                        <mxPoint x="120" y="470.20000000000005" as="targetPoint"/>
                    </mxGeometry>
                </mxCell>
                <mxCell id="W1E-KaIqsvkaFA8WqOx8-40" style="edgeStyle=none;html=1;dashed=1;endArrow=none;endFill=0;" edge="1" parent="1" source="W1E-KaIqsvkaFA8WqOx8-41" target="W1E-KaIqsvkaFA8WqOx8-46">
                    <mxGeometry relative="1" as="geometry"/>
                </mxCell>
                <mxCell id="W1E-KaIqsvkaFA8WqOx8-41" value="" style="html=1;points=[];perimeter=orthogonalPerimeter;" vertex="1" parent="1">
                    <mxGeometry x="670" y="600" width="20" height="40" as="geometry"/>
                </mxCell>
                <mxCell id="W1E-KaIqsvkaFA8WqOx8-42" value="" style="endArrow=classic;html=1;entryX=0;entryY=0.25;entryDx=0;entryDy=0;entryPerimeter=0;" edge="1" parent="1">
                    <mxGeometry width="50" height="50" relative="1" as="geometry">
                        <mxPoint x="276" y="606" as="sourcePoint"/>
                        <mxPoint x="666.0000000000002" y="606" as="targetPoint"/>
                    </mxGeometry>
                </mxCell>
                <mxCell id="W1E-KaIqsvkaFA8WqOx8-43" value="&lt;span class=&quot;hljs-title function_&quot;&gt;updateInformation&lt;/span&gt;()" style="text;html=1;strokeColor=none;fillColor=none;align=center;verticalAlign=middle;whiteSpace=wrap;rounded=0;" vertex="1" parent="1">
                    <mxGeometry x="315" y="580" width="60" height="30" as="geometry"/>
                </mxCell>
                <mxCell id="W1E-KaIqsvkaFA8WqOx8-44" value="" style="endArrow=classic;html=1;dashed=1;exitX=-0.03;exitY=0.87;exitDx=0;exitDy=0;exitPerimeter=0;" edge="1" parent="1">
                    <mxGeometry width="50" height="50" relative="1" as="geometry">
                        <mxPoint x="669.0000000000002" y="633.9999999999998" as="sourcePoint"/>
                        <mxPoint x="279.0000000000002" y="633.9999999999998" as="targetPoint"/>
                    </mxGeometry>
                </mxCell>
                <mxCell id="W1E-KaIqsvkaFA8WqOx8-45" style="edgeStyle=none;html=1;dashed=1;endArrow=none;endFill=0;" edge="1" parent="1" source="W1E-KaIqsvkaFA8WqOx8-46" target="W1E-KaIqsvkaFA8WqOx8-50">
                    <mxGeometry relative="1" as="geometry"/>
                </mxCell>
                <mxCell id="W1E-KaIqsvkaFA8WqOx8-46" value="" style="html=1;points=[];perimeter=orthogonalPerimeter;" vertex="1" parent="1">
                    <mxGeometry x="670" y="680" width="20" height="40" as="geometry"/>
                </mxCell>
                <mxCell id="W1E-KaIqsvkaFA8WqOx8-47" value="" style="endArrow=classic;html=1;entryX=0;entryY=0.25;entryDx=0;entryDy=0;entryPerimeter=0;" edge="1" parent="1">
                    <mxGeometry width="50" height="50" relative="1" as="geometry">
                        <mxPoint x="280.0000000000002" y="695" as="sourcePoint"/>
                        <mxPoint x="670.0000000000002" y="695" as="targetPoint"/>
                    </mxGeometry>
                </mxCell>
                <mxCell id="W1E-KaIqsvkaFA8WqOx8-48" value="&lt;span class=&quot;hljs-title function_&quot;&gt;manageCategories&lt;/span&gt;()" style="text;html=1;strokeColor=none;fillColor=none;align=center;verticalAlign=middle;whiteSpace=wrap;rounded=0;" vertex="1" parent="1">
                    <mxGeometry x="285" y="663" width="120" height="30" as="geometry"/>
                </mxCell>
                <mxCell id="W1E-KaIqsvkaFA8WqOx8-49" value="" style="endArrow=classic;html=1;dashed=1;exitX=-0.03;exitY=0.87;exitDx=0;exitDy=0;exitPerimeter=0;" edge="1" parent="1">
                    <mxGeometry width="50" height="50" relative="1" as="geometry">
                        <mxPoint x="670.0000000000002" y="716.9999999999998" as="sourcePoint"/>
                        <mxPoint x="280.0000000000002" y="716.9999999999998" as="targetPoint"/>
                    </mxGeometry>
                </mxCell>
                <mxCell id="W1E-KaIqsvkaFA8WqOx8-50" value="" style="html=1;points=[];perimeter=orthogonalPerimeter;" vertex="1" parent="1">
                    <mxGeometry x="670" y="760" width="20" height="40" as="geometry"/>
                </mxCell>
                <mxCell id="W1E-KaIqsvkaFA8WqOx8-51" value="" style="endArrow=classic;html=1;entryX=0;entryY=0.25;entryDx=0;entryDy=0;entryPerimeter=0;" edge="1" parent="1">
                    <mxGeometry width="50" height="50" relative="1" as="geometry">
                        <mxPoint x="430.0000000000002" y="775" as="sourcePoint"/>
                        <mxPoint x="670.0000000000002" y="775" as="targetPoint"/>
                    </mxGeometry>
                </mxCell>
                <mxCell id="W1E-KaIqsvkaFA8WqOx8-52" value="&lt;span class=&quot;hljs-title function_&quot;&gt;provideInformation&lt;/span&gt;()" style="text;html=1;strokeColor=none;fillColor=none;align=center;verticalAlign=middle;whiteSpace=wrap;rounded=0;" vertex="1" parent="1">
                    <mxGeometry x="430" y="750" width="120" height="30" as="geometry"/>
                </mxCell>
                <mxCell id="W1E-KaIqsvkaFA8WqOx8-53" value="" style="endArrow=classic;html=1;dashed=1;exitX=-0.03;exitY=0.87;exitDx=0;exitDy=0;exitPerimeter=0;" edge="1" parent="1">
                    <mxGeometry width="50" height="50" relative="1" as="geometry">
                        <mxPoint x="670.0000000000002" y="796.9999999999998" as="sourcePoint"/>
                        <mxPoint x="430.0000000000002" y="796.9999999999998" as="targetPoint"/>
                    </mxGeometry>
                </mxCell>
                <mxCell id="W1E-KaIqsvkaFA8WqOx8-54" value="registerSuccess()" style="text;html=1;strokeColor=none;fillColor=none;align=center;verticalAlign=middle;whiteSpace=wrap;rounded=0;" vertex="1" parent="1">
                    <mxGeometry x="150" y="140" width="60" height="30" as="geometry"/>
                </mxCell>
                <mxCell id="W1E-KaIqsvkaFA8WqOx8-55" value="&lt;span class=&quot;hljs-title function_&quot;&gt;querySuccess&lt;/span&gt;()" style="text;html=1;strokeColor=none;fillColor=none;align=center;verticalAlign=middle;whiteSpace=wrap;rounded=0;" vertex="1" parent="1">
                    <mxGeometry x="140" y="445" width="80" height="30" as="geometry"/>
                </mxCell>
                <mxCell id="W1E-KaIqsvkaFA8WqOx8-56" value="&lt;span class=&quot;hljs-title function_&quot;&gt;borrowSuccess&lt;/span&gt;()" style="text;html=1;strokeColor=none;fillColor=none;align=center;verticalAlign=middle;whiteSpace=wrap;rounded=0;" vertex="1" parent="1">
                    <mxGeometry x="140" y="365" width="90" height="30" as="geometry"/>
                </mxCell>
                <mxCell id="W1E-KaIqsvkaFA8WqOx8-57" value="&lt;span class=&quot;hljs-title function_&quot;&gt;searchSuccess&lt;/span&gt;()" style="text;html=1;strokeColor=none;fillColor=none;align=center;verticalAlign=middle;whiteSpace=wrap;rounded=0;" vertex="1" parent="1">
                    <mxGeometry x="150" y="290" width="60" height="30" as="geometry"/>
                </mxCell>
                <mxCell id="W1E-KaIqsvkaFA8WqOx8-60" value="&lt;span class=&quot;hljs-title function_&quot;&gt;categorizeSuccess&lt;/span&gt;()" style="text;html=1;strokeColor=none;fillColor=none;align=center;verticalAlign=middle;whiteSpace=wrap;rounded=0;" vertex="1" parent="1">
                    <mxGeometry x="282.5" y="693" width="135" height="30" as="geometry"/>
                </mxCell>
                <mxCell id="W1E-KaIqsvkaFA8WqOx8-61" value="&lt;span class=&quot;hljs-title function_&quot;&gt;provideSuccess&lt;/span&gt;()" style="text;html=1;strokeColor=none;fillColor=none;align=center;verticalAlign=middle;whiteSpace=wrap;rounded=0;" vertex="1" parent="1">
                    <mxGeometry x="460" y="770" width="60" height="30" as="geometry"/>
                </mxCell>
                <mxCell id="zFLVyi1EWNJY0Qs0ImB2-1" value="&lt;span style=&quot;font-size: 12px;&quot; class=&quot;hljs-title function_&quot;&gt;reviewSuccess&lt;/span&gt;&lt;span style=&quot;font-size: 12px;&quot;&gt;()&lt;/span&gt;" style="text;html=1;align=center;verticalAlign=middle;resizable=0;points=[];autosize=1;strokeColor=none;fillColor=none;fontSize=18;" vertex="1" parent="1">
                    <mxGeometry x="290" y="520" width="110" height="40" as="geometry"/>
                </mxCell>
                <mxCell id="zFLVyi1EWNJY0Qs0ImB2-3" value="&lt;span style=&quot;&quot; class=&quot;hljs-title function_&quot;&gt;updateInformationSuccess&lt;/span&gt;&lt;span style=&quot;&quot;&gt;()&lt;/span&gt;" style="text;html=1;align=center;verticalAlign=middle;resizable=0;points=[];autosize=1;strokeColor=none;fillColor=none;fontSize=11;" vertex="1" parent="1">
                    <mxGeometry x="270" y="605" width="160" height="30" as="geometry"/>
                </mxCell>
            </root>
        </mxGraphModel>
    </diagram>
</mxfile>